<svg t="1782178849567" class="icon" viewBox="0 0 1037 1024" version="1.1" xmlns="http://www.w3.org/2000/svg" p-id="8996" width="200" height="200"><path d="M982.86367 948.434592h-60.644281v-794.156613c0-66.068116-53.747305-119.815422-119.815422-119.815421H234.809656c-66.068116 0-119.815422 53.747305-119.815421 119.815421v794.156613H54.10443c-15.412174 0-27.900387 12.488213-27.900387 27.900387s12.488213 27.900387 27.900387 27.900387h928.75924c15.412174 0 27.900387-12.488213 27.900386-27.900387s-12.488213-27.900387-27.900386-27.900387z m-812.068662-794.156613c0-35.29957 28.715078-64.014648 64.014648-64.014647H802.415127c35.29957 0 64.014648 28.715078 64.014648 64.014647V946.269522H170.795008V154.277979z m594.635366 4.419422H271.794409c-22.766716 0-41.292573 18.525857-41.292573 41.292572v242.197679c0 22.766716 18.525857 41.292573 41.292573 41.292573h493.624805c22.766716 0 41.292573-18.525857 41.292573-41.292573V199.989973c0-22.766716-18.525857-41.292573-41.292573-41.292572z m-14.508201 268.98205H286.30261V214.498174h464.608403v213.181277z m35.109847 155.628358c0 15.412174-12.488213 27.900387-27.900387 27.900387H573.486873c-15.412174 0-27.900387-12.488213-27.900387-27.900387s12.488213-27.900387 27.900387-27.900387h184.64476c15.412174 0 27.900387 12.488213 27.900387 27.900387z m0 114.179543c0 15.412174-12.488213 27.900387-27.900387 27.900387H573.486873c-15.412174 0-27.900387-12.488213-27.900387-27.900387s12.488213-27.900387 27.900387-27.900387h184.64476c15.412174 0 27.900387 12.488213 27.900387 27.900387z" p-id="8997"></path></svg>