<?xml version="1.0" standalone="no"?><!DOCTYPE svg PUBLIC "-//W3C//DTD SVG 1.1//EN" "http://www.w3.org/Graphics/SVG/1.1/DTD/svg11.dtd"><svg t="1781599650262" class="icon" viewBox="0 0 1024 1024" version="1.1" xmlns="http://www.w3.org/2000/svg" p-id="14934" xmlns:xlink="http://www.w3.org/1999/xlink" width="200" height="200"><path d="M975.213714 421.010286c-8.265143-43.666286-38.546286-72.557714-78.409143-72.557715h-1.682285a73.581714 73.581714 0 0 1-73.289143-73.581714c0-9.142857 4.388571-22.528 6.363428-27.209143a91.794286 91.794286 0 0 0-31.597714-111.104l-111.762286-62.464L680.228571 71.899429a97.28 97.28 0 0 0-105.325714 21.065142c-16.749714 17.188571-46.665143 37.229714-60.416 37.229715-13.824 0-43.958857-20.48-60.562286-38.034286A96.694857 96.694857 0 0 0 348.306286 70.582857l-116.662857 63.853714-4.534858 2.998858a91.282286 91.282286 0 0 0-30.866285 110.153142c2.194286 5.12 6.582857 18.285714 6.582857 27.428572 0 40.594286-32.914286 73.654857-76.068572 73.654857h-1.828571c-37.010286 0-67.291429 28.891429-75.556571 73.216-2.267429 12.434286-9.581714 55.881143-9.581715 91.867429 0 36.132571 7.314286 79.433143 9.728 92.745142 8.192 43.373714 38.619429 72.557714 75.629715 72.557715h4.388571c40.374857 0 73.289143 32.987429 73.289143 73.508571 0 8.777143-4.096 21.650286-6.509714 27.136a91.794286 91.794286 0 0 0 31.012571 110.665143l110.153143 62.171429 4.461714 2.194285a96.182857 96.182857 0 0 0 106.276572-22.381714c16.384-17.773714 47.981714-39.716571 61.586285-39.716571 14.189714 0 45.056 21.869714 61.952 40.448 17.554286 19.309714 43.008 30.500571 70.217143 30.500571 12.8 0 24.868571-2.340571 36.205714-7.314286l114.614858-63.195428 4.608-2.925715c34.596571-24.283429 47.762286-71.533714 30.72-110.08a89.526857 89.526857 0 0 1-6.582858-27.428571c0-40.594286 32.914286-73.508571 76.434286-73.508571 37.229714-0.438857 68.681143-28.452571 77.092572-73.216 2.340571-12.434286 9.654857-55.881143 9.654857-91.867429 0.219429-36.278857-7.241143-79.798857-9.508572-92.891429z m-66.413714 172.397714c-1.609143 8.630857-6.144 17.92-11.702857 17.92-79.725714 0-142.848 61.952-142.848 141.019429 0 23.405714 9.069714 46.811429 11.776 53.467428 4.608 10.24 0.950857 23.113143-7.168 28.672l-0.219429 0.146286-109.129143 60.196571a27.062857 27.062857 0 0 1-27.209142-7.094857c-6.217143-6.729143-58.88-62.683429-112.128-62.683428-54.125714 0-110.738286 60.708571-111.323429 61.366857a29.476571 29.476571 0 0 1-28.818286 6.582857l-1.097143-0.512-104.374857-58.88a24.283429 24.283429 0 0 1-6.363428-26.770286 154.331429 154.331429 0 0 0 12.214857-54.491428 141.165714 141.165714 0 0 0-140.8-141.019429H125.074286c-1.609143-0.365714-6.948571-5.485714-9.362286-17.554286a526.409143 526.409143 0 0 1-8.484571-80.164571c0-23.990857 4.388571-56.905143 8.484571-79.872 2.194286-11.556571 7.168-17.042286 8.777143-17.846857h2.194286c80.457143-0.146286 143.506286-62.025143 143.506285-141.165715 0-24.356571-9.801143-48.859429-11.849143-53.613714a24.502857 24.502857 0 0 1 6.582858-28.086857l1.170285-0.731429L376.832 131.657143a29.842286 29.842286 0 0 1 28.013714 6.875428c2.194286 2.413714 56.539429 58.953143 109.568 58.953143 52.297143 0 106.496-55.442286 108.763429-57.782857a30.939429 30.939429 0 0 1 20.845714-7.826286c3.072 0 5.851429 0.438857 8.192 1.389715l0.950857 0.438857 106.130286 59.318857c7.68 6.729143 10.898286 18.432 7.021714 27.209143-2.413714 5.632-12.288 29.988571-12.288 54.491428 0 77.824 63.122286 141.019429 140.8 141.019429 9.654857 0 12.726857 12.434286 13.750857 17.627429 4.096 22.528 8.557714 55.808 8.557715 80.091428 0.219429 24.722286-4.388571 58.441143-8.338286 79.945143z" fill="#ffffff" opacity=".45" p-id="14935"></path><path d="M512.365714 333.385143a180.077714 180.077714 0 1 0-0.073143 360.155428 180.077714 180.077714 0 0 0 0-360.155428z m0 292.571428a112.64 112.64 0 0 1-112.64-112.493714 112.493714 112.493714 0 1 1 112.64 112.493714z" fill="#ffffff" opacity=".45" p-id="14936"></path></svg>