<?xml version="1.0" standalone="no"?><!DOCTYPE svg PUBLIC "-//W3C//DTD SVG 1.1//EN" "http://www.w3.org/Graphics/SVG/1.1/DTD/svg11.dtd"><svg t="1781599501281" class="icon" viewBox="0 0 1024 1024" version="1.1" xmlns="http://www.w3.org/2000/svg" p-id="11272" xmlns:xlink="http://www.w3.org/1999/xlink" width="200" height="200"><path d="M917.333 874.667H106.667a42.667 42.667 0 0 0 0 85.333h810.666a42.667 42.667 0 0 0 0-85.333z m-637.866-64h465.066a213.333 213.333 0 0 0 213.334-213.334v-320A213.333 213.333 0 0 0 744.533 64H279.467A213.333 213.333 0 0 0 66.133 277.333v320a213.333 213.333 0 0 0 213.334 213.334z m-128-533.334a128 128 0 0 1 128-128h465.066a128 128 0 0 1 128 128v320a128 128 0 0 1-128 128H279.467a128 128 0 0 1-128-128z" p-id="11273" fill="#ffffff"></path><path d="M256 512a42.667 42.667 0 0 0 26.027-8.96l128-99.413 110.506 165.546 4.267 5.12a38.827 38.827 0 0 0 12.373 8.107h2.987a39.253 39.253 0 0 0 14.08 2.56 42.667 42.667 0 0 0 14.507-2.56l3.84-2.133 5.546-2.134 2.987-2.986 3.413-2.56L728.32 428.8l65.28 68.267 25.6-198.4H605.867l66.986 70.4-108.373 108.8-108.8-160a54.187 54.187 0 0 0-5.547-4.694 26.027 26.027 0 0 0-6.4-5.546l-7.253-2.987a54.187 54.187 0 0 0-9.813-5.973 51.2 51.2 0 0 0-8.107 0h-7.68l-8.107 3.413-6.4 2.56-163.84 128A42.667 42.667 0 0 0 256 512z" p-id="11274" fill="#ffffff"></path></svg>